<svg xmlns="http://www.w3.org/2000/svg" xml:space="preserve" width="389.67422" height="185.10376" x="0px" y="0px" viewBox="0 0 389.67422 185.10376"><path fill="#573704" d="M33.72 2.747c26.285-.238 52.104-.369 77.916-.858 4.706-.09 6.315 1.227 5.751 5.835-.338 2.765-.062 5.606-.062 8.897 5.717 0 11.166-.336 16.559.071 10.735.81 21.671.984 32.109 3.295 22.425 4.967 35.215 32.585 25.993 52.108-.618 1.308-.005 3.784.912 5.112 2.128 3.082 4.793 5.794 7.948 9.484.98-2.524 1.87-4.176 2.264-5.939 4.139-18.494 8.273-36.99 12.208-55.528.702-3.309 2.323-4.613 5.5-5.235 12.237-2.398 24.454-4.915 36.618-7.653 4.038-.91 6.37.054 8.526 3.721 7.247 12.33 14.82 24.47 22.398 36.6.844 1.35 2.53 2.176 3.826 3.245.48-1.48 1.312-2.943 1.382-4.441.67-14.311 1.258-28.627 1.75-42.945.096-2.77.243-4.707 3.895-4.848 29.464-1.131 58.922-2.428 88.382-3.663.653-.028 1.31.076 2.08.126v56.804c-2.34.128-4.074.358-5.797.295-9.323-.342-18.65-.649-27.961-1.201-3.575-.212-4.641 1.08-4.56 4.563.3 12.792-1.076 10.293 10.168 10.494 6.663.119 13.332.137 19.993-.032 3.003-.076 4.226 1.068 4.323 3.999.49 14.819 1.002 29.638 1.63 44.452.126 2.971-1.137 3.69-3.825 3.658-8.83-.104-17.666.138-26.49-.12-3.931-.114-5.187 1.04-5.119 5.076.296 17.324.143 34.656.445 51.98.07 4.02-1.112 5.067-5.06 5.002-14.326-.235-28.66-.208-42.986-.013-3.762.05-5.792-.724-5.2-4.906.49-3.459-1.456-4.182-4.493-4.145-9.496.117-18.998-.106-28.49.12-3.465.083-4.553-1.278-5.033-4.462a762.086 762.086 0 0 0-4.95-29.023c-.252-1.328-1.883-3.258-3.025-3.369-2.306-.223-5.046-.179-5.48 3.46-1.103 9.254-2.558 18.466-3.584 27.727-.461 4.164-1.84 5.816-6.465 5.722-16.655-.338-33.322-.133-49.984-.133h-4.903l-1.737-4.867c-6.64 1.666-12.951 4.2-19.413 4.67-12.598.912-25.28.721-37.929.885-8.083.105-8.084.023-9.65 7.872H64.202l-2.284-52.181-2.362-.037-2.32 52.19c-1.575.152-2.85.38-4.125.382-13.663.026-27.327-.067-40.988.077-3.236.034-4.736-.592-4.904-4.283C4.95 131.029 2.46 81.28.211 31.522-.224 21.912.148 12.267.148 2.73c10.61 0 21.856 0 33.571.016m58.312 6.036c-6.486-.263-12.97-.606-19.458-.766-7.167-.178-7.213-.088-7.08 7.224.339 18.482.635 36.964 1.12 55.442.091 3.48-.96 4.814-4.504 4.58-3.815-.251-7.683-.321-11.484.017-4.29.381-5.714-.909-5.697-5.464.073-18.814-.398-37.63-.428-56.446-.007-4.187-1.433-5.595-5.555-5.373-9.474.51-18.963.775-28.45.994-3.587.083-4.93 1.388-4.748 5.181C7 40.108 8.074 66.052 9.162 91.997c1.06 25.279 2.113 50.558 3.051 75.842.134 3.612 1.564 5.09 5.15 5.035 7.328-.113 14.667-.246 21.985.045 4.518.18 6.168-1.231 6.092-5.946-.283-17.487-.117-34.981-.304-52.471-.037-3.414.884-4.824 4.478-4.586 4.146.275 8.345.318 12.484-.009 4.076-.32 5.423.972 5.446 5.205.096 17.316.663 34.63.841 51.947.045 4.314 1.647 5.975 5.949 5.839 6.823-.216 13.658-.05 20.488-.06 6.59-.01 7.064-.467 7.18-7.06.315-17.982.642-35.964.917-53.947.466-30.475.965-60.95 1.307-91.426.148-13.133 1.849-11.159-12.195-11.622m281.1 85.706c-.002-4.665-.128-9.335.036-13.994.137-3.869-1.486-5.396-5.337-5.325-7.995.145-15.998-.087-23.991.1-3.39.079-4.732-.908-4.644-4.492.198-7.992.173-15.999-.087-23.989-.133-4.07 1.502-5.248 5.324-5.01 8.474.525 16.972.66 25.442 1.218 4.115.27 6.014-.992 6.511-5.353.828-7.256 2.281-14.444 3.531-21.65 1.145-6.598.295-7.604-6.405-7.568-21.989.118-43.977.213-65.965.31-6.408.028-6.57.025-6.256 6.341 1.23 24.771 2.587 49.536 3.866 74.304 1.356 26.266 2.727 52.531 3.954 78.804.162 3.489 1.619 4.715 4.895 4.677 6.664-.079 13.34-.258 19.99.055 4.936.232 6.352-1.791 6.24-6.477-.409-17.149-.426-34.306-.83-51.455-.093-4.006 1.215-5.33 5.158-5.076 4.646.3 9.327.123 13.991.06 16.803-.225 14.366 2.498 14.576-15.48M226.383 24.546c-4.65.161-6.869 2.062-7.464 7.193-1.186 10.223-3.364 20.329-5.103 30.488-5.472 31.955-10.91 63.916-16.42 95.864-.737 4.274 1.032 5.76 5.12 5.694 7.663-.122 15.332-.146 22.994.017 3.328.07 4.682-1.055 5.017-4.492 1.048-10.758 2.507-21.475 3.644-32.224.265-2.504.849-3.948 3.722-4.184 5.133-.423 10.254-1.113 15.343-1.924 3.901-.621 5.572.51 6.158 4.722 1.58 11.358 3.824 22.622 5.559 33.96.486 3.182 1.894 4.174 4.925 4.132 8.497-.12 16.997-.005 25.495-.054 5.713-.033 6.425-.991 5.303-6.516-5.192-25.58-10.313-51.175-15.59-76.737-1.304-6.312-1.915-13.168-4.903-18.652-7.16-13.138-15.605-25.573-23.39-38.377-1.872-3.078-4.026-3.707-7.484-2.978-7.315 1.544-14.736 2.586-22.926 4.068m-46.274 129.88c24.71-19.432 23.86-54.732 1.258-72.906-2.8-2.252-2.07-4.302-.823-6.95 10.505-22.298-2.23-47.935-26.613-51.27-12.01-1.644-24.505-.06-36.76.514-7.118.334-7.273.746-6.889 7.86 1.68 31.082 3.464 62.16 5.218 93.24.657 11.632 1.421 23.26 1.966 34.899.214 4.59 1.575 6.917 6.869 6.38 7.773-.79 15.62-1.02 23.441-1.11 11.689-.137 22.31-3.288 32.333-10.657z"/><path fill="#f2a400" d="M92.499 8.797c13.576.449 11.875-1.525 11.727 11.608-.342 30.476-.841 60.95-1.307 91.426-.275 17.982-.602 35.964-.917 53.946-.116 6.593-.59 7.051-7.18 7.061-6.83.01-13.665-.157-20.488.06-4.302.135-5.904-1.526-5.949-5.839-.178-17.317-.745-34.63-.84-51.948-.024-4.232-1.37-5.525-5.447-5.204-4.14.326-8.338.284-12.484.01-3.594-.239-4.515 1.17-4.478 4.585.187 17.49.02 34.984.304 52.471.076 4.715-1.574 6.125-6.092 5.945-7.318-.29-14.657-.157-21.985-.044-3.586.055-5.016-1.423-5.15-5.036-.938-25.283-1.99-50.563-3.05-75.842C8.073 66.053 7 40.108 5.746 14.172c-.183-3.793 1.161-5.099 4.749-5.181 9.486-.22 18.975-.484 28.449-.994 4.122-.223 5.548 1.186 5.555 5.373.03 18.816.5 37.631.428 56.446-.017 4.555 1.407 5.845 5.697 5.464 3.801-.338 7.67-.268 11.484-.017 3.543.234 4.595-1.1 4.504-4.58-.485-18.478-.781-36.96-1.12-55.442-.133-7.312-.087-7.403 7.08-7.225 6.488.161 12.972.504 19.926.78M70.247 130.501c.326 10.625.737 21.25.92 31.877.049 2.87 1.123 3.77 3.86 3.699 5.329-.138 10.67-.213 15.992.019 3.868.168 5.254-1.195 5.288-5.156.188-22.124.664-44.245.922-66.368.15-12.828-.037-25.66.13-38.487.18-13.96.667-27.917.766-41.877.008-1.061-1.943-2.972-3.103-3.07-7.103-.603-14.26-.576-21.361-1.205-4.569-.404-5.624 1.294-5.504 5.612.534 19.118.705 38.246 1.133 57.367.08 3.548-.962 5.215-4.793 5.103-6.826-.2-13.663-.153-20.491-.013-3.33.068-4.784-1.014-4.822-4.578-.195-18.459-.585-36.915-.902-55.373-.026-1.499-.119-3.009.014-4.496.27-3.02-1.29-3.671-3.935-3.527-7.289.398-14.584.828-21.879.893-3.24.03-4.476.996-4.277 4.3.75 12.414 1.415 24.835 1.977 37.26 1.064 23.542 2.086 47.087 3.02 70.635.475 11.953.7 23.916 1.097 35.873.044 1.305.113 2.862.818 3.83.956 1.312 2.475 2.968 3.862 3.077 4.802.376 9.672-.123 14.479.225 4.46.323 6.032-.944 5.948-5.724-.307-17.323-.086-34.655-.196-51.982-.02-3.028.546-4.597 4.074-4.496 7.658.221 15.329.18 22.99.014 3.095-.068 4.058 1.077 3.995 4.076-.149 7.161-.032 14.328-.022 22.492z"/><path fill="#f2a300" d="M373.13 94.985c-.21 17.481 2.227 14.758-14.576 14.984-4.664.063-9.345.239-13.991-.06-3.943-.254-5.251 1.07-5.157 5.076.403 17.148.42 34.306.83 51.454.11 4.687-1.305 6.71-6.24 6.477-6.651-.312-13.327-.133-19.991-.055-3.276.039-4.733-1.187-4.895-4.677-1.227-26.272-2.598-52.537-3.954-78.803-1.28-24.769-2.637-49.533-3.866-74.304-.314-6.317-.152-6.313 6.256-6.342 21.988-.096 43.976-.191 65.965-.31 6.7-.036 7.55.971 6.405 7.569-1.25 7.206-2.703 14.393-3.53 21.65-.498 4.36-2.397 5.623-6.512 5.352-8.47-.557-16.968-.692-25.442-1.218-3.822-.238-5.457.941-5.324 5.01.26 7.99.285 15.998.087 23.99-.088 3.584 1.253 4.57 4.644 4.491 7.993-.186 15.996.046 23.99-.1 3.852-.07 5.475 1.457 5.339 5.325-.165 4.66-.038 9.33-.038 14.49M345.78 77.96c-2.332 0-4.68-.174-6.992.038-4.033.37-5.675-1.06-5.586-5.333a776.353 776.353 0 0 0-.025-32.975c-.083-3.812 1.173-4.949 4.864-4.723 8.612.526 17.25.625 25.863 1.128 6.386.374 6.579.359 7.367-6.24.117-.982.356-1.95.512-2.93.812-5.119 1.616-10.24 2.46-15.6h-70.735c.259 3.455.536 6.54.713 9.631.673 11.748 1.346 23.497 1.96 35.248 1.04 19.871 2.072 39.743 3.035 59.617a4328.024 4328.024 0 0 1 1.992 45.742c.097 2.568.972 3.566 3.543 3.504 4.828-.116 9.674-.256 14.486.043 3.899.243 5.167-.977 5.113-5.011-.226-16.82.074-33.647-.235-50.464-.087-4.766 1.466-5.935 5.93-5.736 7.48.334 14.988-.008 22.48.134 3.368.065 4.88-1.077 4.775-4.612a285.958 285.958 0 0 1 .007-17.486c.096-3.067-1.02-4.119-4.048-4.023-5.491.175-10.992.049-17.478.048z"/><path fill="#f1a301" d="M226.79 24.429c7.783-1.365 15.204-2.407 22.519-3.95 3.458-.73 5.612-.1 7.484 2.977 7.785 12.804 16.23 25.239 23.39 38.377 2.988 5.484 3.6 12.34 4.903 18.652 5.277 25.562 10.398 51.157 15.59 76.737 1.122 5.525.41 6.483-5.303 6.516-8.498.05-16.998-.065-25.495.054-3.031.042-4.439-.95-4.925-4.132-1.735-11.338-3.98-22.602-5.559-33.96-.586-4.212-2.257-5.343-6.158-4.722-5.09.811-10.21 1.501-15.343 1.924-2.873.236-3.457 1.68-3.722 4.184-1.137 10.75-2.596 21.466-3.644 32.224-.335 3.437-1.69 4.563-5.017 4.492-7.662-.163-15.331-.14-22.995-.017-4.087.066-5.856-1.42-5.119-5.694 5.51-31.948 10.948-63.909 16.42-95.864 1.74-10.159 3.917-20.265 5.103-30.488.595-5.131 2.814-7.032 7.87-7.31m.684 119.435c.927-6.545 2.3-13.067 2.632-19.642.238-4.708 2.375-5.995 6.454-6.248 4.123-.257 8.277-.6 12.324-1.383 11.485-2.224 11.503-2.326 13.336 8.846 1.42 8.648 2.605 17.337 4.194 25.953.366 1.983 1.868 5.29 2.998 5.354 8.083.465 16.206.249 24.854.249-.198-2.432-.166-4.222-.51-5.936-4.811-24.013-9.624-48.026-14.56-72.013-1.23-5.975-1.758-12.483-4.593-17.66-6.77-12.362-14.684-24.1-22.26-36.011-.675-1.063-2.386-2.349-3.39-2.181a506.647 506.647 0 0 0-24.827 4.794c-1.105.241-2.52 1.768-2.743 2.904-1.239 6.325-2.116 12.72-3.188 19.08-3.049 18.102-6.092 36.205-9.213 54.295-2.812 16.292-5.781 32.558-8.462 48.871-.187 1.138 1.396 3.67 2.226 3.7 7.608.291 15.232.172 23.225.172.491-4.427.926-8.342 1.503-13.144z"/><path fill="#f3a401" d="M179.823 154.641c-9.737 7.154-20.358 10.305-32.047 10.441-7.82.091-15.668.321-23.441 1.11-5.294.538-6.655-1.789-6.87-6.38-.544-11.638-1.308-23.266-1.965-34.899-1.754-31.08-3.539-62.157-5.218-93.24-.384-7.113-.23-7.525 6.89-7.859 12.254-.574 24.749-2.158 36.76-.515 24.382 3.336 37.117 28.973 26.612 51.27-1.248 2.649-1.978 4.698.823 6.95 22.601 18.175 23.451 53.475-1.544 73.122m-63.576-63.177c.322 3.461.747 6.916.948 10.384 1.044 18.046 2.137 36.09 2.944 54.148.156 3.494 1.511 4.198 4.54 4.039 8.456-.444 16.95-.388 25.372-1.16 11.554-1.06 22.13-5.239 30.253-13.618 18.298-18.875 15.783-49.396-5.52-64.106-3.42-2.362-3.733-3.885-1.533-7.422 7.674-12.335 6.951-24.872-1.515-36.38-8.96-12.18-22.268-14.07-36.245-13.168-6.603.426-13.174 1.363-19.777 1.725-3.027.165-3.508 1.37-3.327 4.06 1.358 20.174 2.588 40.356 3.86 61.498z"/><path fill="#feda02" d="M70.247 130.001c-.01-7.664-.126-14.83.022-21.992.063-2.998-.9-4.143-3.995-4.076-7.661.167-15.332.207-22.99-.013-3.528-.102-4.094 1.467-4.074 4.495.11 17.328-.111 34.66.196 51.982.084 4.78-1.487 6.047-5.948 5.724-4.807-.348-9.676.151-14.479-.225-1.387-.109-2.906-1.764-3.862-3.077-.705-.968-.774-2.525-.818-3.83-.396-11.956-.622-23.92-1.096-35.873-.935-23.548-1.957-47.093-3.021-70.636a2467.742 2467.742 0 0 0-1.977-37.26c-.199-3.302 1.037-4.27 4.277-4.298 7.296-.066 14.59-.496 21.879-.894 2.645-.144 4.206.506 3.935 3.527-.133 1.488-.04 2.997-.014 4.497.317 18.457.707 36.914.902 55.372.038 3.564 1.493 4.646 4.822 4.578 6.828-.14 13.666-.186 20.491.013 3.83.113 4.873-1.555 4.793-5.103-.428-19.121-.599-38.249-1.133-57.367-.12-4.317.935-6.016 5.504-5.611 7.1.628 14.258.602 21.361 1.204 1.16.099 3.11 2.009 3.103 3.07-.099 13.96-.585 27.917-.766 41.877-.167 12.827.02 25.66-.13 38.487-.258 22.124-.734 44.245-.922 66.368-.033 3.962-1.42 5.325-5.288 5.156-5.321-.232-10.663-.157-15.991-.02-2.738.072-3.812-.828-3.861-3.698-.182-10.628-.594-21.251-.92-32.376M25.84 75.448V28.885c-4.195.239-7.748.44-11.589.66l3.128 117.964h8.46V75.448m48.47-4.956v12.532H46.333c7.637 4.291 25.554 6.005 35.178 4.006 1.565-23.491 3.14-47.127 4.716-70.804H74.304c0 18.009 0 35.638.003 54.266M16.284 16.268c-4.478.493-2.708 3.935-2.457 6.12.112.977 2.341 2.209 3.75 2.43 2.514.395 5.134.111 8.128.111l.449-8.706c-3.4 0-6.192 0-9.87.045z"/><path fill="#fed901" d="M346.275 77.96c5.992 0 11.492.127 16.983-.048 3.028-.096 4.144.955 4.048 4.023a286.762 286.762 0 0 0-.007 17.486c.106 3.535-1.406 4.676-4.774 4.612-7.493-.142-15 .2-22.481-.134-4.463-.2-6.017.97-5.93 5.736.31 16.817.009 33.644.235 50.464.054 4.034-1.214 5.254-5.113 5.011-4.811-.3-9.658-.159-14.485-.043-2.572.062-3.447-.936-3.544-3.504a4328.024 4328.024 0 0 0-1.992-45.742c-.963-19.874-1.995-39.746-3.034-59.617-.615-11.751-1.287-23.5-1.96-35.248-.177-3.09-.455-6.176-.713-9.63h70.735c-.845 5.36-1.648 10.48-2.46 15.6-.156.979-.395 1.946-.513 2.93-.788 6.598-.98 6.613-7.367 6.24-8.613-.504-17.25-.603-25.862-1.13-3.692-.225-4.948.912-4.865 4.724a776.32 776.32 0 0 1 .025 32.975c-.088 4.273 1.554 5.704 5.587 5.333 2.312-.212 4.66-.038 7.487-.038m-35.917-.488c.073 2.497.41 5.02.166 7.487-.572 5.763 2.733 8.32 8.055 10.2.148-2.093.323-3.86.391-5.63.688-17.801 1.246-35.61 2.16-53.4.13-2.512 1.489-5.332 3.12-7.32 3.381-4.122 7.328-7.78 11.913-12.533h-27.996c.73 20.323 1.448 40.265 2.191 61.196m8.668 32.223c.07-7.77-.376-8.366-7.83-10.153l1.66 30.04c4.76.854 6.461-.645 6.184-4.956-.299-4.64-.035-9.316-.014-14.93z"/><path fill="#feda01" d="M227.402 144.307c-.506 4.36-.94 8.274-1.432 12.7-7.993 0-15.617.12-23.225-.17-.83-.032-2.413-2.563-2.226-3.701 2.681-16.313 5.65-32.579 8.462-48.871 3.12-18.09 6.164-36.193 9.213-54.296 1.072-6.359 1.95-12.754 3.188-19.079.223-1.136 1.638-2.663 2.743-2.904a506.647 506.647 0 0 1 24.826-4.794c1.005-.168 2.716 1.118 3.391 2.181 7.576 11.911 15.49 23.65 22.26 36.011 2.835 5.177 3.363 11.685 4.593 17.66 4.936 23.987 9.749 48 14.56 72.013.344 1.714.312 3.504.51 5.936-8.648 0-16.77.216-24.854-.248-1.13-.065-2.632-3.372-2.998-5.355-1.589-8.616-2.774-17.305-4.194-25.952-1.833-11.173-1.85-11.07-13.336-8.847-4.047.783-8.2 1.126-12.324 1.383-4.08.253-6.216 1.54-6.454 6.248-.333 6.575-1.705 13.097-2.703 20.085m18.021-116.502c-5.918.811-11.886 1.382-17.72 2.601-1.467.307-3.307 2.537-3.608 4.14-2.76 14.675-5.005 29.447-7.874 44.099-1.025 5.233.966 7.112 5.71 7.944 3.142-13.16 6.034-26.11 9.432-38.924.876-3.304 3.01-6.447 5.164-9.196 2.928-3.735 6.43-7.02 10.018-10.552-.084.044-.168.087-1.122-.112m5.263 64.193c4.083.233 6.593-.616 4.92-5.676-.92-2.782-1.26-5.855-1.317-8.807-.213-11.162-7.159-18.579-14.855-27.52l-5.514 44.197c6.112-.843 10.993-1.516 16.766-2.194m-38.551 11.238-2.525 14.41c5.267-1.992 8.43-4.99 8.66-10.564.108-2.624.47-5.336 1.304-7.81 1.585-4.707-.116-7.206-5.185-8.435-.724 3.884-1.438 7.715-2.254 12.4zM116.246 90.983c-1.27-20.66-2.5-40.843-3.859-61.016-.181-2.69.3-3.896 3.327-4.061 6.603-.362 13.174-1.299 19.777-1.725 13.977-.902 27.285.988 36.245 13.168 8.466 11.508 9.19 24.045 1.515 36.38-2.2 3.537-1.888 5.06 1.534 7.422 21.302 14.71 23.817 45.23 5.519 64.106-8.123 8.379-18.7 12.558-30.253 13.618-8.421.772-16.916.716-25.372 1.16-3.029.159-4.384-.545-4.54-4.04-.807-18.056-1.9-36.101-2.944-54.147-.2-3.468-.626-6.923-.949-10.865m46.742 37c.446-.636.892-1.273 1.944-2.297 4.543-7.098 4.204-14.236-.58-20.9-5.117-7.13-12.51-9.584-21.072-8.564-2.754.329-4.299 1.68-4.099 4.976.563 9.279.754 18.58 1.175 27.87.06 1.302.497 2.615.935 3.861.247.702.713 1.558 1.322 1.864 4.812 2.42 15.748-.927 19.168-5.93.244-.203.445-.441 1.207-.88m-6.04-63.31c5.695-10.377-.737-21.57-12.45-21.668-8.448-.071-8.506-.07-8.238 7.969.23 6.883.61 13.76.928 20.727 6.383.456 11.836.92 16.797-3.748.785-.955 1.569-1.91 2.964-3.28m-39.158-33.63c.665 13.415 1.301 26.833 2.008 40.247.407 7.732.929 15.459 1.42 23.544 4.184-1.825 6.024-4.166 5.984-8.546-.112-12.294.594-24.6.314-36.886-.173-7.635 1.281-13.997 8.106-18.279.152-.095.069-.564.142-1.38-5.802.263-11.541.522-17.974 1.3z"/><path fill="#fffad4" d="M25.838 75.938v71.571h-8.46L14.25 29.544l11.589-.659-.001 47.053z"/><path fill="#fffad5" d="M74.306 69.993c-.002-18.129-.002-35.758-.002-53.767h11.923L81.511 87.03c-9.624 2-27.542.285-35.178-4.006h27.975c0-4.37 0-8.452-.003-13.031z"/><path fill="#fff8ca" d="M16.727 16.245c3.235-.022 6.027-.022 9.427-.022-.142 2.752-.28 5.44-.45 8.706-2.993 0-5.613.284-8.127-.11-1.409-.222-3.638-1.454-3.75-2.43-.25-2.186-2.021-5.628 2.9-6.144z"/><path fill="#fffad5" d="M310.345 76.978c-.73-20.437-1.447-40.38-2.177-60.702h27.996c-4.586 4.753-8.532 8.411-11.914 12.533-1.63 1.988-2.99 4.808-3.12 7.32-.913 17.79-1.471 35.599-2.16 53.4-.067 1.77-.242 3.537-.39 5.63-5.322-1.88-8.627-4.437-8.055-10.2.244-2.466-.093-4.99-.18-7.98z"/><path fill="#fff8c7" d="M319.025 110.172c-.02 5.138-.284 9.814.015 14.454.278 4.311-1.423 5.81-6.184 4.957l-1.659-30.04c7.453 1.786 7.899 2.383 7.828 10.63z"/><path fill="#fffad4" d="M246.213 27.972c-3.256 3.478-6.758 6.762-9.686 10.497-2.154 2.749-4.288 5.892-5.164 9.196-3.398 12.815-6.29 25.764-9.432 38.924-4.744-.832-6.735-2.711-5.71-7.944 2.869-14.652 5.115-29.424 7.874-44.1.301-1.602 2.141-3.832 3.609-4.139 5.833-1.219 11.801-1.79 18.135-2.5.416.102.374.066.374.066z"/><path fill="#f2a501" d="M250.24 92c-5.327.676-10.208 1.35-16.32 2.192l5.514-44.197c7.696 8.941 14.642 16.358 14.855 27.52.057 2.952.397 6.025 1.317 8.807 1.673 5.06-.837 5.909-5.366 5.678m-6.617-1.044c12.015-1.996 9.549.427 8.166-10.802-.204-1.65-.585-3.282-.715-4.935-.503-6.403-4.742-10.606-8.63-15.826-.547 1.317-.929 1.87-.998 2.461-1.013 8.588-1.915 17.19-2.995 25.768-.475 3.773 1.774 3.639 5.172 3.334z"/><path fill="#fff9d1" d="M212.186 102.81c.765-4.258 1.479-8.09 2.203-11.973 5.069 1.229 6.77 3.728 5.185 8.434-.833 2.475-1.196 5.187-1.304 7.81-.23 5.574-3.393 8.573-8.66 10.564.88-5.02 1.702-9.714 2.576-14.835z"/><path fill="#fffad4" d="M246.274 28.028c.103-.024.187-.067.105-.084-.166.028-.124.064-.105.084zM118.138 30.783c6.086-.518 11.825-.777 17.627-1.04-.073.816.01 1.285-.142 1.38-6.825 4.282-8.28 10.644-8.106 18.279.28 12.286-.426 24.592-.314 36.886.04 4.38-1.8 6.72-5.983 8.546-.492-8.085-1.014-15.812-1.421-23.544-.707-13.414-1.343-26.832-1.661-40.507z"/><path fill="#f3a501" d="M161.397 129.133c-3.036 4.733-13.972 8.08-18.784 5.66-.609-.306-1.075-1.162-1.322-1.864-.438-1.246-.876-2.56-.935-3.862-.421-9.289-.612-18.59-1.175-27.87-.2-3.295 1.345-4.646 4.099-4.975 8.562-1.02 15.955 1.435 21.073 8.564 4.783 6.664 5.122 13.802.103 20.933-.476.032-.821-.29-.648-.612 3.274-7.008 2.848-13.418-2.274-18.816-4.358-4.592-9.9-6.283-16.715-4.53l1.664 30.838c5.948 1.26 10.29-1.147 14.642-3.744.089.094.272.278.272.278z"/><path fill="#f2a400" d="M153.34 68.091c-4.316 4.53-9.77 4.066-16.152 3.61-.318-6.967-.699-13.844-.928-20.727-.268-8.038-.21-8.04 8.238-7.97 11.713.099 18.145 11.292 12.013 21.747-.438.079-.705-.178-.557-.536 2.129-4.62 2.16-8.717-1.094-12.397-3.28-3.71-7.393-4.63-12.776-3.28l1.414 21.281c3.605-.922 6.418-1.642 9.384-2.203l.458.475z"/><path fill="#f2a400" d="M156.206 64.958c-.652 1.084-1.436 2.04-2.543 3.064-.323.07-.628-.247-.568-.619.944-1.191 1.828-2.01 2.711-2.83l.4.385z"/><path fill="#f3a501" d="M164.153 125.912c-.273.798-.72 1.435-1.559 2.061-.393-.01-.582-.189-.484-.46.574-.876 1.05-1.48 1.525-2.083l.518.482zM162.292 128.055c-.066.367-.267.606-.703.943-.192.135-.375-.049-.36-.357.212-.576.467-.759.783-.857 0 0 .189.179.28.27z"/><path fill="#593702" d="M243.182 90.981c-2.957.28-5.206.414-4.73-3.359 1.08-8.579 1.981-17.18 2.994-25.768.07-.59.451-1.144.998-2.461 3.888 5.22 8.127 9.423 8.63 15.826.13 1.653.511 3.285.715 4.935 1.383 11.23 3.849 8.806-8.607 10.827z"/><path fill="#573603" d="M162.11 127.513c-.414.369-.67.552-.97 1.033-4.367 2.906-8.71 5.314-14.657 4.053l-1.664-30.837c6.816-1.754 12.357-.063 16.715 4.529 5.122 5.398 5.548 11.808 2.274 18.816-.649.927-1.124 1.53-1.698 2.406z"/><path fill="#573602" d="M155.954 64.215c-1.031 1.178-1.915 1.997-3.011 3.03-3.027.932-5.84 1.652-9.445 2.574l-1.414-21.28c5.383-1.35 9.496-.431 12.776 3.279 3.253 3.68 3.223 7.778 1.094 12.397z"/></svg>